<svg viewBox="0 0 495.88 140.31" xmlns="http://www.w3.org/2000/svg" xmlns:xlink="http://www.w3.org/1999/xlink" id="Capa_1" overflow="hidden"><defs></defs><g><path d="M125.23 111.09 125.23 34.27 141.31 34.27 141.31 111.1 125.23 111.1Z" fill="#CDD500"/><path d="M186.46 111.09 186.46 76.61C186.46 67.82 183.91 65.39 176.74 65.39 168.87 65.39 165.05 69.79 165.05 78.46L165.05 111.09 150.01 111.09 150.01 54.16 164.36 54.16 164.36 62.49C167.83 56.13 173.62 52.65 182.76 52.65 193.64 52.65 201.62 59.25 201.62 71.62L201.62 111.07 186.46 111.07Z" fill="#CDD500"/><path d="M214.47 111.09 214.47 64.81 206.02 64.81 206.02 54.17 214.47 54.17C214.47 40.29 222.45 33.35 238.65 33.35L238.65 45.5C231.01 45.5 229.28 47.58 229.28 54.18L239 54.18 239 64.82 229.28 64.82 229.28 111.1 214.47 111.1Z" fill="#CDD500"/><path d="M243.65 47.34 243.65 33.34 258.69 33.34 258.69 47.34 243.65 47.34ZM243.65 111.09 243.65 54.16 258.69 54.16 258.69 111.09 243.65 111.09Z" fill="#CDD500"/><path d="M313.71 111.09 313.71 76.61 283.74 76.61 283.74 111.09 267.66 111.09 267.66 34.27 283.74 34.27 283.74 63.2 313.71 63.2 313.71 34.27 329.91 34.27 329.91 111.1 313.71 111.1Z" fill="#FFFFFF"/><path d="M375.72 111.09 375.72 103.11C371.79 109.59 365.89 112.6 358.02 112.6 346.68 112.6 338.7 104.15 338.7 91.66L338.7 54.17 353.74 54.17 353.74 89.34C353.74 96.51 356.98 99.98 363.34 99.98 370.98 99.98 375.03 94.54 375.03 87.02L375.03 54.16 389.96 54.16 389.96 111.09 375.73 111.09Z" fill="#FFFFFF"/><path d="M399.04 47.34 399.04 33.34 414.08 33.34 414.08 47.34 399.04 47.34ZM399.04 111.09 399.04 54.16 414.08 54.16 414.08 111.09 399.04 111.09Z" fill="#FFFFFF"/><path d="M422.97 111.09 422.97 33.34 438.01 33.34 438.01 111.09 422.97 111.09Z" fill="#FFFFFF"/><path d="M481.88 111.09C481.42 109.7 481.07 107.73 480.95 106 477.36 109.93 471.35 112.6 463.71 112.6 450.75 112.6 444.74 106.24 444.74 96.98 444.74 80.55 455.73 78.7 470.89 76.62 478.41 75.58 480.49 74.07 480.49 70.14 480.49 66.44 476.79 64.24 470.89 64.24 464.06 64.24 461.29 67.6 460.59 72.69L446.59 72.69C446.82 60.89 453.3 52.67 471.58 52.67 489.86 52.67 495.88 60.77 495.88 75.12L495.88 111.1 481.88 111.1ZM480.84 83.21C479.34 84.71 476.68 85.52 471.12 86.57 462.56 88.19 459.78 90.62 459.78 95.48 459.78 99.76 462.32 101.84 467.07 101.84 474.82 101.84 480.61 96.17 480.72 89.46L480.84 83.21Z" fill="#FFFFFF"/></g><g><path d="M40.46 120.02C40.46 125.43 38.35 130.32 34.89 133.93 34.71 134.13 34.51 134.32 34.31 134.51L34.31 134.51C26.57 142.25 14.01 142.25 6.27 134.51L6.27 134.51C6.12 134.37 5.96 134.21 5.81 134.05L5.81 134.05C-1.93 126.31-1.93 113.75 5.81 106.01L5.81 106.01C5.81 106.01 6.27 105.55 6.27 105.55L20.29 91.53 33.87 105.11C33.93 105.18 34 105.26 34.08 105.34L34.09 105.34C34.17 105.41 34.24 105.48 34.3 105.55 34.5 105.73 34.69 105.93 34.88 106.13L34.96 106.21C35 106.27 35.04 106.29 35.09 106.34 35.13 106.38 35.17 106.42 35.22 106.48 38.47 110.06 40.46 114.81 40.46 120.03Z" fill="#CDD500"/><path d="M91.76 49.01C99.5 56.75 99.51 69.3 91.76 77.05L77.29 91.53 77.28 91.53 63.71 105.1C66.96 101.51 68.96 96.75 68.96 91.53 68.96 86.31 66.83 81.23 63.37 77.62 63.37 77.61 63.37 77.59 63.36 77.59L62.73 76.96C62.73 76.96 62.72 76.95 62.7 76.93L48.78 63.02 20.28 34.53 20.05 34.3C12.31 26.56 12.31 14 20.05 6.26L20.51 5.8C28.25-1.94 40.81-1.94 48.55 5.8L77.28 34.53 91.76 49Z" fill="#CDD500"/><path d="M68.96 91.53C68.96 96.75 66.96 101.51 63.71 105.1 63.68 105.14 63.64 105.18 63.6 105.23L62.46 106.36C62.46 106.36 62.39 106.44 62.35 106.47L48.8 120.02 34.89 133.93C38.35 130.33 40.46 125.43 40.46 120.02 40.46 114.61 38.48 110.04 35.22 106.47 35.18 106.41 35.14 106.37 35.09 106.33 35.05 106.29 35.01 106.26 34.96 106.2L34.88 106.12C34.7 105.92 34.5 105.73 34.3 105.54 34.24 105.47 34.17 105.4 34.09 105.34L34.08 105.34C34 105.26 33.93 105.17 33.87 105.1L20.29 91.52 5.81 77.05C-1.94 69.31-1.94 56.75 5.81 49.01L6.26 48.56C14 40.82 26.55 40.82 34.3 48.56L48.78 63.04 62.7 76.95C62.7 76.95 62.73 76.96 62.73 76.98L63.36 77.61C63.36 77.61 63.37 77.62 63.37 77.64 66.83 81.24 68.96 86.14 68.96 91.55Z" fill="#FFFFFF"/></g></svg>