<svg viewBox="0 0 415.43 94.56" xmlns="http://www.w3.org/2000/svg" xmlns:xlink="http://www.w3.org/1999/xlink" id="Capa_1" overflow="hidden"><style>
.MsftOfcResponsive_Fill_cdd500 {
 fill:#CDD500; 
}
</style>
<defs></defs><g><path d="M57.25 63.19 60.87 63.19 37.48 31.17 33.59 31.17 57.25 63.19ZM59.54 27.32 66.08 27.32 51.79 44.23 68.6 67.24 55.44 67.24 45.13 53.28 33.34 67.24 26.8 67.24 42.08 49.15 25.96 27.32 39.46 27.32 48.78 40.08 59.56 27.32Z" class="MsftOfcResponsive_Fill_cdd500" fill="#CDD500"/><path d="M47.28 94.56C21.21 94.56 0 73.35 0 47.28 0 21.21 21.21 0 47.28 0 73.35 0 94.56 21.21 94.56 47.28 94.56 73.35 73.35 94.56 47.28 94.56ZM47.28 2.78C22.74 2.78 2.78 22.74 2.78 47.28 2.78 71.82 22.74 91.78 47.28 91.78 71.82 91.78 91.78 71.82 91.78 47.28 91.78 22.74 71.82 2.78 47.28 2.78Z" class="MsftOfcResponsive_Fill_cdd500" fill="#CDD500"/></g><g><path d="M378.74 47.3 371.81 47.3 371.81 72 361.54 72 361.54 47.3 356.66 47.3 356.66 38.57 361.54 38.57 361.54 32.92C361.54 28.88 363.46 22.56 371.9 22.56L379.51 22.59 379.51 31.06 373.99 31.06C373.08 31.06 371.81 31.51 371.81 33.44L371.81 38.58 379.63 38.58 378.73 47.3Z" class="MsftOfcResponsive_Fill_cdd500" fill="#CDD500"/><path d="M368.15 94.56C342.08 94.56 320.87 73.35 320.87 47.28 320.87 21.21 342.08 0 368.15 0 394.22 0 415.43 21.21 415.43 47.28 415.43 73.35 394.22 94.56 368.15 94.56ZM368.15 2.78C343.61 2.78 323.65 22.74 323.65 47.28 323.65 71.82 343.61 91.78 368.15 91.78 392.69 91.78 412.65 71.82 412.65 47.28 412.65 22.74 392.69 2.78 368.15 2.78Z" class="MsftOfcResponsive_Fill_cdd500" fill="#CDD500"/></g><g><path d="M153.62 94.56C127.55 94.56 106.34 73.35 106.34 47.28 106.34 21.21 127.55 0 153.62 0 179.69 0 200.9 21.21 200.9 47.28 200.9 73.35 179.69 94.56 153.62 94.56ZM153.62 2.78C129.08 2.78 109.12 22.74 109.12 47.28 109.12 71.82 129.08 91.78 153.62 91.78 178.16 91.78 198.12 71.82 198.12 47.28 198.12 22.74 178.16 2.78 153.62 2.78Z" class="MsftOfcResponsive_Fill_cdd500" fill="#CDD500"/><path d="M178.6 37.26C178.6 33.13 175.26 29.79 171.13 29.79L136.1 29.79C131.97 29.79 128.63 33.13 128.63 37.26L128.63 57.29C128.63 61.41 131.97 64.76 136.1 64.76L171.13 64.76C175.26 64.76 178.6 61.42 178.6 57.29L178.6 37.26ZM148.62 55.73 148.62 36.92 162.89 46.33 148.62 55.74Z" class="MsftOfcResponsive_Fill_cdd500" fill="#CDD500" fill-rule="evenodd"/></g><g><path d="M259.96 94.56C233.89 94.56 212.68 73.35 212.68 47.28 212.68 21.21 233.89 0 259.96 0 286.03 0 307.24 21.21 307.24 47.28 307.24 73.35 286.03 94.56 259.96 94.56ZM259.96 2.78C235.42 2.78 215.46 22.74 215.46 47.28 215.46 71.82 235.42 91.78 259.96 91.78 284.5 91.78 304.46 71.82 304.46 47.28 304.46 22.74 284.5 2.78 259.96 2.78Z" class="MsftOfcResponsive_Fill_cdd500" fill="#CDD500"/><g><path d="M259.96 33.8C252.53 33.8 246.48 39.85 246.48 47.28 246.48 54.71 252.53 60.76 259.96 60.76 267.39 60.76 273.44 54.71 273.44 47.28 273.44 39.85 267.39 33.8 259.96 33.8ZM259.96 57.1C254.55 57.1 250.14 52.69 250.14 47.28 250.14 41.87 254.54 37.46 259.96 37.46 265.38 37.46 269.78 41.87 269.78 47.28 269.78 52.69 265.37 57.1 259.96 57.1Z" class="MsftOfcResponsive_Fill_cdd500" fill="#CDD500"/><path d="M275.93 23.41 244 23.41C239.64 23.41 236.1 26.95 236.1 31.31L236.1 63.24C236.1 67.6 239.64 71.14 244 71.14L275.93 71.14C280.29 71.14 283.83 67.6 283.83 63.24L283.83 31.31C283.83 26.95 280.29 23.41 275.93 23.41ZM280.17 63.25C280.17 65.59 278.27 67.49 275.93 67.49L244 67.49C241.66 67.49 239.76 65.59 239.76 63.25L239.76 31.32C239.76 28.98 241.66 27.08 244 27.08L275.93 27.08C278.27 27.08 280.17 28.98 280.17 31.32L280.17 63.25Z" class="MsftOfcResponsive_Fill_cdd500" fill="#CDD500"/><path d="M273.77 30.82C272.6 30.82 271.65 31.77 271.65 32.94 271.65 34.11 272.6 35.06 273.77 35.06 274.94 35.06 275.89 34.11 275.89 32.94 275.89 31.77 274.94 30.82 273.77 30.82Z" class="MsftOfcResponsive_Fill_cdd500" fill="#CDD500"/></g></g></svg>